/* XPM */
static char * ezguest_48x48_xpm[] = {
"48 48 707 2",
"  	c None",
". 	c #000000",
"+ 	c #010000",
"@ 	c #0C0000",
"# 	c #4A3333",
"$ 	c #473E3E",
"% 	c #393131",
"& 	c #322323",
"* 	c #1B0404",
"= 	c #080000",
"- 	c #110000",
"; 	c #624848",
"> 	c #7D7B7B",
", 	c #A6A6A6",
"' 	c #B3B3B3",
") 	c #ACACAC",
"! 	c #858585",
"~ 	c #302E2E",
"{ 	c #341919",
"] 	c #060000",
"^ 	c #040000",
"/ 	c #050000",
"( 	c #020000",
"_ 	c #723738",
": 	c #7F7E7E",
"< 	c #949494",
"[ 	c #959595",
"} 	c #6E6E6E",
"| 	c #1F1D1D",
"1 	c #511313",
"2 	c #320000",
"3 	c #170000",
"4 	c #0F0000",
"5 	c #0B0000",
"6 	c #190000",
"7 	c #5C5557",
"8 	c #737373",
"9 	c #727272",
"0 	c #717171",
"a 	c #676767",
"b 	c #262626",
"c 	c #140C0D",
"d 	c #5D0000",
"e 	c #450000",
"f 	c #240000",
"g 	c #130000",
"h 	c #080001",
"i 	c #4F1C4F",
"j 	c #3C3B3C",
"k 	c #494949",
"l 	c #484848",
"m 	c #3E3E3E",
"n 	c #121212",
"o 	c #010101",
"p 	c #140002",
"q 	c #150000",
"r 	c #370000",
"s 	c #550005",
"t 	c #0F0008",
"u 	c #501450",
"v 	c #1E1D1E",
"w 	c #454646",
"x 	c #323232",
"y 	c #323233",
"z 	c #616263",
"A 	c #676869",
"B 	c #222222",
"C 	c #030303",
"D 	c #4B174B",
"E 	c #30000F",
"F 	c #371838",
"G 	c #424242",
"H 	c #A1A2A3",
"I 	c #5E5E5E",
"J 	c #0F0F0F",
"K 	c #565555",
"L 	c #ACABAC",
"M 	c #B2B3B3",
"N 	c #555555",
"O 	c #020202",
"P 	c #3F123F",
"Q 	c #3C0000",
"R 	c #0D0000",
"S 	c #2C0001",
"T 	c #160008",
"U 	c #190013",
"V 	c #480048",
"W 	c #20203B",
"X 	c #7F7C78",
"Y 	c #868481",
"Z 	c #8D867F",
"` 	c #32291F",
" .	c #928980",
"..	c #777471",
"+.	c #7A7874",
"@.	c #9B9791",
"#.	c #0D0D0C",
"$.	c #221926",
"%.	c #1B001B",
"&.	c #11000A",
"*.	c #0A0006",
"=.	c #0D0001",
"-.	c #410003",
";.	c #100005",
">.	c #060005",
",.	c #080007",
"'.	c #730073",
").	c #151550",
"!.	c #726D68",
"~.	c #625445",
"{.	c #B38B62",
"].	c #B98B59",
"^.	c #CA9966",
"/.	c #715438",
"(.	c #71665A",
"_.	c #9B948A",
":.	c #0B0A0A",
"<.	c #151528",
"[.	c #26000E",
"}.	c #600060",
"|.	c #161F4C",
"1.	c #4D3F30",
"2.	c #D19955",
"3.	c #F4BD76",
"4.	c #FECC89",
"5.	c #FBC278",
"6.	c #E29F49",
"7.	c #DC9E4F",
"8.	c #826645",
"9.	c #060503",
"0.	c #141439",
"a.	c #3A4233",
"b.	c #B88429",
"c.	c #FDBF36",
"d.	c #FFC948",
"e.	c #FFCA4C",
"f.	c #FEC137",
"g.	c #FDBB2D",
"h.	c #CF9727",
"i.	c #2D1D0B",
"j.	c #0E1529",
"k.	c #243B33",
"l.	c #956E22",
"m.	c #F8C427",
"n.	c #FCCC23",
"o.	c #FDCE23",
"p.	c #FBCB21",
"q.	c #FAC926",
"r.	c #C69C41",
"s.	c #251D12",
"t.	c #091116",
"u.	c #0C2222",
"v.	c #483E2E",
"w.	c #EECB6C",
"x.	c #F9D722",
"y.	c #FCE013",
"z.	c #FBDF16",
"A.	c #F7D33C",
"B.	c #F3D587",
"C.	c #C8B9A1",
"D.	c #373430",
"E.	c #04080A",
"F.	c #123C59",
"G.	c #124949",
"H.	c #090A0A",
"I.	c #5F5C58",
"J.	c #EFE9E0",
"K.	c #F0DCA9",
"L.	c #F1D772",
"M.	c #F0D892",
"N.	c #F0E4D3",
"O.	c #F0EEE9",
"P.	c #DED9D3",
"Q.	c #696661",
"R.	c #060605",
"S.	c #0F1717",
"T.	c #141F1F",
"U.	c #0A0909",
"V.	c #8A8681",
"W.	c #E7E4E0",
"X.	c #E8E5E1",
"Y.	c #E8E4DF",
"Z.	c #E8E4E0",
"`.	c #DFDBD5",
" +	c #97938E",
".+	c #171616",
"++	c #111111",
"@+	c #3A4747",
"#+	c #395F5F",
"$+	c #1B1B1B",
"%+	c #222221",
"&+	c #AAA7A2",
"*+	c #DAD7D2",
"=+	c #DCD8D4",
"-+	c #DBD8D4",
";+	c #DCD8D3",
">+	c #D6D2CC",
",+	c #BFBAB5",
"'+	c #383735",
")+	c #040404",
"!+	c #393A3A",
"~+	c #3A5053",
"{+	c #357474",
"]+	c #4A4D4D",
"^+	c #070707",
"/+	c #585755",
"(+	c #C2BFBB",
"_+	c #CFCCC9",
":+	c #D2D0CD",
"<+	c #D3D1CD",
"[+	c #D2D0CB",
"}+	c #D1CEC8",
"|+	c #CECBC7",
"1+	c #CCCAC6",
"2+	c #CCC9C5",
"3+	c #807E7D",
"4+	c #080808",
"5+	c #4F5151",
"6+	c #2C4264",
"7+	c #238989",
"8+	c #495656",
"9+	c #343434",
"0+	c #161616",
"a+	c #898988",
"b+	c #C9C8C6",
"c+	c #C9C7C6",
"d+	c #C0BEBC",
"e+	c #B3B3AC",
"f+	c #A8A79E",
"g+	c #A6A59B",
"h+	c #AEADA7",
"i+	c #BBBAB7",
"j+	c #B2B0B0",
"k+	c #212121",
"l+	c #1C1C1D",
"m+	c #131313",
"n+	c #303030",
"o+	c #434A51",
"p+	c #394F4F",
"q+	c #454546",
"r+	c #393939",
"s+	c #ABABA9",
"t+	c #87837C",
"u+	c #6D6859",
"v+	c #5A513D",
"w+	c #4C422D",
"x+	c #49432B",
"y+	c #4E4833",
"z+	c #646051",
"A+	c #83817B",
"B+	c #A8A8A9",
"C+	c #5F6060",
"D+	c #0E0E0E",
"E+	c #2D2D2E",
"F+	c #141414",
"G+	c #3F3F40",
"H+	c #2C2C6A",
"I+	c #444545",
"J+	c #333434",
"K+	c #8B8C8D",
"L+	c #BFC1BC",
"M+	c #82806B",
"N+	c #453722",
"O+	c #2D2014",
"P+	c #1F160E",
"Q+	c #1A120C",
"R+	c #1A130D",
"S+	c #1F1711",
"T+	c #32271A",
"U+	c #59503F",
"V+	c #85837B",
"W+	c #8A8B88",
"X+	c #282723",
"Y+	c #252523",
"Z+	c #252827",
"`+	c #292B2A",
" @	c #303037",
".@	c #2B3434",
"+@	c #434343",
"@@	c #2C2D2E",
"#@	c #272727",
"$@	c #C0C0C0",
"%@	c #C4C7C0",
"&@	c #959787",
"*@	c #777664",
"=@	c #6C6655",
"-@	c #635A49",
";@	c #5C5242",
">@	c #5B5142",
",@	c #5C5144",
"'@	c #635A4D",
")@	c #6C685C",
"!@	c #7E7D74",
"~@	c #9D9C95",
"{@	c #5B5A52",
"]@	c #161710",
"^@	c #464849",
"/@	c #191919",
"(@	c #2E2E2E",
"_@	c #1F1F54",
":@	c #2F3334",
"<@	c #3D3D3E",
"[@	c #333333",
"}@	c #565554",
"|@	c #CECDCC",
"1@	c #CDCDC9",
"2@	c #9EA093",
"3@	c #898A74",
"4@	c #888367",
"5@	c #857A5F",
"6@	c #7E7156",
"7@	c #7B6B52",
"8@	c #74634D",
"9@	c #6F614C",
"0@	c #736C5D",
"a@	c #97958E",
"b@	c #C0BFBA",
"c@	c #7C7C72",
"d@	c #181911",
"e@	c #5B5C5E",
"f@	c #242424",
"g@	c #1B1B2C",
"h@	c #11115C",
"i@	c #2A2A2C",
"j@	c #424141",
"k@	c #4A4848",
"l@	c #8B8885",
"m@	c #CFCCC6",
"n@	c #CFCDC4",
"o@	c #ABAC9D",
"p@	c #92927F",
"q@	c #8F8B71",
"r@	c #8C8367",
"s@	c #84795E",
"t@	c #817259",
"u@	c #7C6E56",
"v@	c #776D56",
"w@	c #7A7464",
"x@	c #9F9B91",
"y@	c #9A968A",
"z@	c #7D7A6C",
"A@	c #44433E",
"B@	c #747373",
"C@	c #151515",
"D@	c #141319",
"E@	c #111146",
"F@	c #1F1F1F",
"G@	c #3F3F3E",
"H@	c #6E6C6A",
"I@	c #A5A19B",
"J@	c #B8B6A6",
"K@	c #B7B6A3",
"L@	c #ADAD99",
"M@	c #9C9B85",
"N@	c #99957B",
"O@	c #958E71",
"P@	c #8D8366",
"Q@	c #867B5F",
"R@	c #81765B",
"S@	c #7E725A",
"T@	c #7D725F",
"U@	c #8C8370",
"V@	c #9F9889",
"W@	c #99948D",
"X@	c #787673",
"Y@	c #6E6D6B",
"Z@	c #3A3937",
"`@	c #141313",
" #	c #120E13",
".#	c #131134",
"+#	c #281F17",
"@#	c #352F2A",
"##	c #83807B",
"$#	c #B7B3A9",
"%#	c #A8A692",
"&#	c #B4B29D",
"*#	c #C3C2A8",
"=#	c #ACAA90",
"-#	c #A49F85",
";#	c #A39980",
">#	c #9C9074",
",#	c #94876B",
"'#	c #8E8266",
")#	c #92866C",
"!#	c #9B927D",
"~#	c #A09782",
"{#	c #9B9180",
"]#	c #6E6963",
"^#	c #696868",
"/#	c #5E5E5D",
"(#	c #444342",
"_#	c #403E3B",
":#	c #180D18",
"<#	c #BF7844",
"[#	c #DF9A54",
"}#	c #CE8C49",
"|#	c #836341",
"1#	c #8E8A7C",
"2#	c #A6A492",
"3#	c #BBB8A1",
"4#	c #CFCAB0",
"5#	c #CBC7AC",
"6#	c #9E9977",
"7#	c #9A9071",
"8#	c #9C8E74",
"9#	c #988970",
"0#	c #8F8166",
"a#	c #847A5F",
"b#	c #9A917C",
"c#	c #B0A18A",
"d#	c #BB8652",
"e#	c #5A4632",
"f#	c #363635",
"g#	c #383838",
"h#	c #1F1D1A",
"i#	c #634E39",
"j#	c #683939",
"k#	c #EA7748",
"l#	c #F5AA5E",
"m#	c #FCCE9A",
"n#	c #FAC78F",
"o#	c #C08E4C",
"p#	c #4E482A",
"q#	c #6B6C5F",
"r#	c #B7B19D",
"s#	c #D1CBB1",
"t#	c #CDC7AB",
"u#	c #8D8664",
"v#	c #706645",
"w#	c #6C6241",
"x#	c #695F3F",
"y#	c #726748",
"z#	c #B4AA92",
"A#	c #DDD3C4",
"B#	c #DDBFA1",
"C#	c #DA9C5B",
"D#	c #76624A",
"E#	c #1A1815",
"F#	c #1B1814",
"G#	c #5A4328",
"H#	c #CC873A",
"I#	c #EA9243",
"J#	c #F16B7D",
"K#	c #ED7F45",
"L#	c #F7A558",
"M#	c #FDC88C",
"N#	c #FED3A3",
"O#	c #FCD19F",
"P#	c #DFB36E",
"Q#	c #826629",
"R#	c #1C2310",
"S#	c #6A6757",
"T#	c #CCC3B0",
"U#	c #DBD3BB",
"V#	c #B2AA8B",
"W#	c #8F8464",
"X#	c #8F8564",
"Y#	c #A39979",
"Z#	c #C2B79D",
"`#	c #DCD2C0",
" $	c #DFD5C5",
".$	c #C4A07A",
"+$	c #927041",
"@$	c #A88E68",
"#$	c #A08361",
"$$	c #AE8A61",
"%$	c #E0AD71",
"&$	c #FCB14F",
"*$	c #FDAC38",
"=$	c #F29A4F",
"-$	c #F1461B",
";$	c #F3973D",
">$	c #FEA846",
",$	c #FFCA8D",
"'$	c #FECD95",
")$	c #FECC93",
"!$	c #FECB91",
"~$	c #F0C081",
"{$	c #C49846",
"]$	c #3A350E",
"^$	c #1B2004",
"/$	c #4B4A2F",
"($	c #8E876A",
"_$	c #A89E83",
":$	c #B5A88E",
"<$	c #B4A78F",
"[$	c #AFA187",
"}$	c #A5977D",
"|$	c #8A7F66",
"1$	c #635C43",
"2$	c #4A3E1B",
"3$	c #866E43",
"4$	c #E2B782",
"5$	c #F9C588",
"6$	c #FCC57F",
"7$	c #FCC471",
"8$	c #FFBB46",
"9$	c #FEBA2F",
"0$	c #F6AC39",
"a$	c #F15C23",
"b$	c #F7A33D",
"c$	c #FFAD41",
"d$	c #FFC57D",
"e$	c #FEC686",
"f$	c #FDC584",
"g$	c #FDC483",
"h$	c #FBC27F",
"i$	c #E8B163",
"j$	c #8E6727",
"k$	c #272506",
"l$	c #232708",
"m$	c #4B4926",
"n$	c #494523",
"o$	c #494322",
"p$	c #4B4222",
"q$	c #48401F",
"r$	c #443E1D",
"s$	c #464020",
"t$	c #575132",
"u$	c #84622F",
"v$	c #DDAB6C",
"w$	c #F8C482",
"x$	c #FBC67A",
"y$	c #FAC56C",
"z$	c #FCC456",
"A$	c #FFC133",
"B$	c #FFC627",
"C$	c #FBC028",
"D$	c #F18C31",
"E$	c #F6A837",
"F$	c #FFB633",
"G$	c #FFBC4E",
"H$	c #FEC36E",
"I$	c #FEC274",
"J$	c #FEBF74",
"K$	c #FEBD73",
"L$	c #FDBB6F",
"M$	c #E29C4C",
"N$	c #8A6531",
"O$	c #625E3E",
"P$	c #686642",
"Q$	c #605D38",
"R$	c #5A5733",
"S$	c #5A5332",
"T$	c #5F5837",
"U$	c #6F6746",
"V$	c #978F71",
"W$	c #C0AF92",
"X$	c #DEA059",
"Y$	c #F9C173",
"Z$	c #FBC773",
"`$	c #FAC767",
" %	c #FBC856",
".%	c #FCC63A",
"+%	c #FFC925",
"@%	c #FFD020",
"#%	c #FFD41C",
"$%	c #F7C125",
"%%	c #F6B52F",
"&%	c #FFC726",
"*%	c #FFC22A",
"=%	c #FEC138",
"-%	c #FDC34F",
";%	c #FDC159",
">%	c #FFBF5B",
",%	c #FFBB5B",
"'%	c #FDB357",
")%	c #F6A74D",
"!%	c #ECC08E",
"~%	c #E0D3B9",
"{%	c #DACEB2",
"]%	c #D5CAAE",
"^%	c #D8CCB2",
"/%	c #E4D6BD",
"(%	c #EFE1C7",
"_%	c #E5D6C3",
":%	c #D3B492",
"<%	c #F0AE50",
"[%	c #FDCA66",
"}%	c #FDCC5B",
"|%	c #FDCD4F",
"1%	c #FDCE38",
"2%	c #FED022",
"3%	c #FFD51C",
"4%	c #FFDC17",
"5%	c #FEDF15",
"6%	c #FAD21C",
"7%	c #F9C722",
"8%	c #FFD61C",
"9%	c #FFD11F",
"0%	c #FFCC22",
"a%	c #FFC92A",
"b%	c #FFC839",
"c%	c #FFC641",
"d%	c #FFC244",
"e%	c #FFBC44",
"f%	c #FEB33D",
"g%	c #E6A148",
"h%	c #978775",
"i%	c #BDB2A2",
"j%	c #DCD0BD",
"k%	c #E2D5C3",
"l%	c #D2C6B5",
"m%	c #ADA395",
"n%	c #665F56",
"o%	c #7F5C31",
"p%	c #EEB23F",
"q%	c #FFCF53",
"r%	c #FFD147",
"s%	c #FFD438",
"t%	c #FFD521",
"u%	c #FFDA19",
"v%	c #FFDF14",
"w%	c #FBD917",
"x%	c #F4C825",
"y%	c #ECB037",
"z%	c #F9D11C",
"A%	c #FFE512",
"B%	c #FFDF15",
"C%	c #FFDC18",
"D%	c #FFD71B",
"E%	c #FFD220",
"F%	c #FFCE25",
"G%	c #FFCB29",
"H%	c #FFC62C",
"I%	c #FFC12D",
"J%	c #F5B12F",
"K%	c #4B321A",
"L%	c #22201E",
"M%	c #34322D",
"N%	c #393631",
"O%	c #2E2C28",
"P%	c #1A1917",
"Q%	c #0D0906",
"R%	c #81591B",
"S%	c #F7C134",
"T%	c #FFD43E",
"U%	c #FFD730",
"V%	c #FFDA20",
"W%	c #FFE311",
"X%	c #F7CE1E",
"Y%	c #E29F31",
"Z%	c #E3A540",
"`%	c #ECB82E",
" &	c #F0C324",
".&	c #F3C920",
"+&	c #F7D11C",
"@&	c #FDDB17",
"#&	c #FFDE16",
"$&	c #FFDB18",
"%&	c #FFD61B",
"&&	c #F3B82A",
"*&	c #432913",
"=&	c #120808",
"-&	c #1A0B0A",
";&	c #200B0B",
">&	c #1D0A0A",
",&	c #170A0A",
"'&	c #1B0F0A",
")&	c #976921",
"!&	c #F9C922",
"~&	c #FFDB1F",
"{&	c #FFE017",
"]&	c #FFE510",
"^&	c #FDE50F",
"/&	c #F0C220",
"(&	c #CD7F32",
"_&	c #CE8833",
":&	c #E6AF2E",
"<&	c #F3C724",
"[&	c #F9D31C",
"}&	c #FAD41B",
"|&	c #F5C323",
"1&	c #D98D2B",
"2&	c #621D14",
"3&	c #B15C26",
"4&	c #F0B726",
"5&	c #FEE113",
"6&	c #FEE70E",
"7&	c #FCE410",
"8&	c #F0C423",
"9&	c #D98932",
"0&	c #D98A2D",
"a&	c #D16825",
"b&	c #BF2C0F",
"c&	c #AB0D03",
"d&	c #A20E02",
"e&	c #A20D04",
"f&	c #A60C03",
"g&	c #A90C03",
"h&	c #AB0B03",
"i&	c #AE0D03",
"j&	c #B91C0A",
"k&	c #D66829",
"l&	c #EDAA29",
"m&	c #EFB526",
"n&	c #E8A92F",
"o&	c #7B0000",
"p&	c #610000",
"q&	c #900000",
"r&	c #700000",
"s&	c #600000",
"t&	c #6A0000",
"u&	c #690000",
"v&	c #620000",
"w&	c #550000",
"x&	c #500000",
"                                                                                                ",
"                                        . .     . .                                             ",
"                                      . .       . . .   . .                                     ",
"                                        .       . . .   .   . .                                 ",
"                              . .       +         @     + . .     .                             ",
"                                . .           # $ % &   * =     . . .                           ",
"                                  -       ; > , ' ) ! ~ {     ] ^ /                             ",
"                        . (             _ : < [ < < < } | 1   2 3                               ",
"                        ^ 4 5 6         7 8 8 9 9 9 0 a b c     d e f = +                       ",
"                          g h         i j k k l l k l m n o       p q r                         ",
"                          s t         u v w x b y z A B C . D       E                           ",
"                                      F G H I J K L M N O . P           Q R                     ",
"                    2 S T U V         W X Y Z `  ...+.@.#.. $.      %.&.*.=.                    ",
"                    -.;.>.,.'.        ).!.~.{.].^./.(._.:.. <.            [.                    ",
"                          }.          |.1.2.3.4.5.6.7.8.9.. 0.                                  ",
"                                      a.b.c.d.e.d.f.g.h.i.. j.                                  ",
"                                      k.l.m.n.o.n.p.q.r.s.. t.                                  ",
"                                      u.v.w.x.y.z.A.B.C.D.. E.F.                                ",
"                                    G.H.I.J.K.L.M.N.O.P.Q.R.o S.                                ",
"                                    T.U.V.W.X.Y.Z.W.W.`. +.+. ++@+                              ",
"                                  #+$+%+&+*+=+=+=+-+;+>+,+'+. )+!+~+                            ",
"                                {+]+^+/+(+_+:+<+[+}+|+1+2+3+4+J J 5+6+                          ",
"                              7+8+9+0+a+b+c+d+e+f+g+g+h+i+j+k+l+m+n+o+                          ",
"                              p+q+k+r+' s+t+u+v+w+x+y+z+A+B+C+D+E+F+G+H+                        ",
"                              I+J+m+K+L+M+N+O+P+Q+R+S+T+U+V+W+X+Y+Z+`+ @                        ",
"                            .@+@@@#@$@%@&@*@=@-@;@>@,@'@)@!@~@{@]@^@/@(@_@                      ",
"                            :@<@[@}@|@1@2@3@4@5@6@7@8@9@0@a@b@c@d@e@++f@g@                      ",
"                          h@i@j@k@l@m@n@o@p@q@r@s@t@u@v@w@x@y@z@A@B@J C@D@                      ",
"                          E@F@G@H@I@J@K@L@M@N@O@P@Q@R@S@T@U@V@W@X@Y@Z@`@ #                      ",
"                          .#+#@###$#%#&#*#=#-#;#>#,#'#)#!#~#{#]#^#/#(#_#:#                      ",
"                          <#[#}#|#1#2#3#4#5#6#7#8#9#0#a#b#c#d#e#f#g#h#i#j#                      ",
"                        k#l#m#n#o#p#q#r#s#t#u#v#w#x#y#z#A#B#C#D#E#F#G#H#I#J#                    ",
"                      K#L#M#N#O#P#Q#R#S#T#U#V#W#X#Y#Z#`# $.$+$@$#$$$%$&$*$=$                    ",
"                  -$;$>$,$'$)$!$~${$]$^$/$($_$:$<$[$}$|$1$2$3$4$5$6$7$8$9$0$                    ",
"                  a$b$c$d$e$f$g$h$i$j$k$l$m$n$o$p$q$r$s$t$u$v$w$x$y$z$A$B$C$D$                  ",
"                    E$F$G$H$I$J$K$L$M$N$O$P$Q$R$S$T$U$V$W$X$Y$Z$`$ %.%+%@%#%$%                  ",
"                    %%&%*%=%-%;%>%,%'%)%!%~%{%]%^%/%(%_%:%<%[%}%|%1%2%3%4%5%6%                  ",
"                    7%8%9%0%a%b%c%d%e%f%g%h%i%j%k%l%m%n%o%p%q%r%s%t%u%v%w%x%y%                  ",
"                    z%A%B%C%D%E%F%G%H%I%J%K%L%M%N%O%P%Q%R%S%T%U%V%B%W%X%Y%                      ",
"                    Z%`% &.&+&@&#&$&%&9%&&*&=&-&;&>&,&'&)&!&~&{&]&^&/&(&                        ",
"                            _&:&<&[&}&|&1&2&            3&4&5&6&7&8&                            ",
"                                  9&0&a&b&c&d&e&f&g&h&i&j&k&l&m&n&                              ",
"                                                                                                ",
"                            o&    p&              q&    q&r&                                    ",
"                                  s&                      t&                                    ",
"                            u&    v&                                                            ",
"                            w&    x&        e                                                   ",
"                                                                                                "};
