/* XPM */
static char * ezguest_16_xpm[] = {
"16 16 86 1",
" 	c None",
".	c #000000",
"+	c #191212",
"@	c #0B0303",
"#	c #817F7F",
"$	c #8D8D8D",
"%	c #413131",
"&	c #430105",
"*	c #44000A",
"=	c #542455",
"-	c #484848",
";	c #646465",
">	c #171717",
",	c #460017",
"'	c #390036",
")	c #423F69",
"!	c #A68762",
"~	c #A88862",
"{	c #34302A",
"]	c #535B3B",
"^	c #FACD34",
"/	c #FACC37",
"(	c #524326",
"_	c #1A1D5E",
":	c #3C403E",
"<	c #E6DECA",
"[	c #E6E0D3",
"}	c #84827D",
"|	c #121717",
"1	c #375252",
"2	c #767574",
"3	c #AAA7A0",
"4	c #969386",
"5	c #A4A29E",
"6	c #1E1E1E",
"7	c #303454",
"8	c #363636",
"9	c #AEAEA7",
"0	c #625A47",
"a	c #504536",
"b	c #6D675A",
"c	c #5C5C56",
"d	c #2E2F30",
"e	c #1B1947",
"f	c #6D6A67",
"g	c #B9B8A7",
"h	c #9A957C",
"i	c #897D62",
"j	c #8B826E",
"k	c #807C72",
"l	c #3F3E3D",
"m	c #EDA970",
"n	c #B28E5C",
"o	c #9B9884",
"p	c #A8A182",
"q	c #8E8265",
"r	c #BFB098",
"s	c #826647",
"t	c #80623D",
"u	c #DE6F66",
"v	c #F89737",
"w	c #FEC67E",
"x	c #F3BB74",
"y	c #5D4D22",
"z	c #6F6A4A",
"A	c #73694A",
"B	c #82704B",
"C	c #E7B772",
"D	c #FDC452",
"E	c #FAB82A",
"F	c #F8C323",
"G	c #FFCE28",
"H	c #FFC640",
"I	c #F8B648",
"J	c #998D7B",
"K	c #9E9586",
"L	c #AA884E",
"M	c #FED146",
"N	c #FED71D",
"O	c #F3C721",
"P	c #F0C020",
"Q	c #ECAA22",
"R	c #55120B",
"S	c #530A08",
"T	c #AD621B",
"U	c #F9D31A",
"        .       ",
"        +@      ",
"       #$%&     ",
"    * =-;> ,    ",
"    ' )!~{      ",
"      ]^/(_     ",
"      :<[}|     ",
"     1234567    ",
"     890abcd    ",
"    efghijkl    ",
"    mnopqrstu   ",
"   vwxyzABCDE   ",
"   FGHIJKLMNO   ",
"     PQRSTU     ",
"                ",
"                "};
