/* XPM */
static char * ezguest_32x32_xpm[] = {
"32 32 330 2",
"  	c None",
". 	c #000000",
"+ 	c #030000",
"@ 	c #352C2C",
"# 	c #2A1E1E",
"$ 	c #090101",
"% 	c #320000",
"& 	c #766C6C",
"* 	c #979797",
"= 	c #A7A7A7",
"- 	c #939393",
"; 	c #3E3838",
"> 	c #541717",
", 	c #440000",
"' 	c #0D0000",
") 	c #060000",
"! 	c #0C0000",
"~ 	c #3A0000",
"{ 	c #6D434A",
"] 	c #797979",
"^ 	c #7E7E7E",
"/ 	c #7D7D7D",
"( 	c #525252",
"_ 	c #241616",
": 	c #500002",
"< 	c #0F0000",
"[ 	c #120003",
"} 	c #392B39",
"| 	c #464646",
"1 	c #3E3E3E",
"2 	c #464647",
"3 	c #525253",
"4 	c #272727",
"5 	c #050505",
"6 	c #190007",
"7 	c #3E0002",
"8 	c #382E39",
"9 	c #717272",
"0 	c #2A2A2A",
"a 	c #626262",
"b 	c #979898",
"c 	c #2E2E2E",
"d 	c #010101",
"e 	c #641164",
"f 	c #280002",
"g 	c #110009",
"h 	c #3A0038",
"i 	c #646167",
"j 	c #857B70",
"k 	c #735E49",
"l 	c #95826F",
"m 	c #766F67",
"n 	c #6B6863",
"o 	c #040404",
"p 	c #2D183D",
"q 	c #260021",
"r 	c #14000C",
"s 	c #510003",
"t 	c #3C003C",
"u 	c #710071",
"v 	c #494245",
"w 	c #BD905A",
"x 	c #E4B376",
"y 	c #DBA562",
"z 	c #BA8A4E",
"A 	c #5F503F",
"B 	c #030202",
"C 	c #15144E",
"D 	c #906E2A",
"E 	c #FCC435",
"F 	c #FECB3D",
"G 	c #FEC838",
"H 	c #FCC12C",
"I 	c #966F24",
"J 	c #0E0A04",
"K 	c #0F1742",
"L 	c #4B4329",
"M 	c #F4CC44",
"N 	c #FCD81C",
"O 	c #FAD623",
"P 	c #F6D155",
"Q 	c #958463",
"R 	c #100F0D",
"S 	c #091523",
"T 	c #0F2424",
"U 	c #4C4A47",
"V 	c #EDE5D4",
"W 	c #EEDDA3",
"X 	c #EDDFBA",
"Y 	c #EDE8E1",
"Z 	c #BCB8B2",
"` 	c #302F2C",
" .	c #050707",
"..	c #203535",
"+.	c #268989",
"@.	c #191B1B",
"#.	c #73716D",
"$.	c #DFDCD7",
"%.	c #E0DCD8",
"&.	c #DFDCD8",
"*.	c #CCC8C2",
"=.	c #595754",
"-.	c #030303",
";.	c #282B2B",
">.	c #298D8D",
",.	c #414F4F",
"'.	c #2B2B2A",
").	c #A6A4A1",
"!.	c #CDCAC8",
"~.	c #CAC8C4",
"{.	c #C4C2BB",
"].	c #C1BFB9",
"^.	c #C3C2BD",
"/.	c #A3A09F",
"(.	c #111111",
"_.	c #41464B",
":.	c #3B5556",
"<.	c #313333",
"[.	c #555555",
"}.	c #B0AFAE",
"|.	c #96938C",
"1.	c #7D786A",
"2.	c #6A6452",
"3.	c #6A6654",
"4.	c #858279",
"5.	c #A4A3A2",
"6.	c #383838",
"7.	c #1E1E1F",
"8.	c #28292A",
"9.	c #313364",
"0.	c #3D3E3E",
"a.	c #212222",
"b.	c #A9AAA8",
"c.	c #9B9B8D",
"d.	c #4F4533",
"e.	c #3A3024",
"f.	c #30271E",
"g.	c #322921",
"h.	c #4C4335",
"i.	c #777369",
"j.	c #73736E",
"k.	c #282824",
"l.	c #2C2E2E",
"m.	c #2B2C2F",
"n.	c #293146",
"o.	c #3A3A3B",
"p.	c #3F3F3E",
"q.	c #CAC9C7",
"r.	c #ABACA1",
"s.	c #82806A",
"t.	c #7B735B",
"u.	c #72654E",
"v.	c #6D5F4B",
"w.	c #6D6352",
"x.	c #858278",
"y.	c #9E9D96",
"z.	c #35362E",
"A.	c #3F3F41",
"B.	c #212121",
"C.	c #212133",
"D.	c #484746",
"E.	c #7F7C79",
"F.	c #C7C5BB",
"G.	c #B5B5A5",
"H.	c #94937D",
"I.	c #90896E",
"J.	c #867A5F",
"K.	c #7F7259",
"L.	c #7A705B",
"M.	c #8F887A",
"N.	c #959083",
"O.	c #66645D",
"P.	c #565554",
"Q.	c #181717",
"R.	c #26132C",
"S.	c #201B22",
"T.	c #4F4B48",
"U.	c #9F9C95",
"V.	c #B0AE9B",
"W.	c #B9B8A2",
"X.	c #A5A289",
"Y.	c #9F977D",
"Z.	c #94896D",
"`.	c #8C8064",
" +	c #8D826A",
".+	c #978D79",
"++	c #928A7D",
"@+	c #73706D",
"#+	c #585756",
"$+	c #363533",
"%+	c #330F34",
"&+	c #D27756",
"*+	c #E3A263",
"=+	c #C69057",
"-+	c #837357",
";+	c #9F9D8B",
">+	c #C8C3AB",
",+	c #BBB698",
"'+	c #908867",
")+	c #8B7E62",
"!+	c #86795D",
"~+	c #9D947C",
"{+	c #BAAA92",
"]+	c #A5794C",
"^+	c #3F3830",
"/+	c #302C28",
"(+	c #6A4F30",
"_+	c #AB5456",
":+	c #EE665F",
"<+	c #F6A763",
"[+	c #FCCB94",
"}+	c #EEC187",
"|+	c #92753C",
"1+	c #505241",
"2+	c #B5AE9A",
"3+	c #C6BFA3",
"4+	c #908666",
"5+	c #877D5D",
"6+	c #9F9578",
"7+	c #D4CAB7",
"8+	c #D2B89C",
"9+	c #A47F50",
"0+	c #7F6A4F",
"a+	c #8F714D",
"b+	c #D99B4E",
"c+	c #F69E44",
"d+	c #F3722C",
"e+	c #FBA542",
"f+	c #FFC98A",
"g+	c #FECA8F",
"h+	c #FAC688",
"i+	c #DCAB60",
"j+	c #443A10",
"k+	c #333518",
"l+	c #7D7759",
"m+	c #8E8468",
"n+	c #908469",
"o+	c #877C5F",
"p+	c #6D6449",
"q+	c #5E4F2B",
"r+	c #BA9561",
"s+	c #F4C283",
"t+	c #FCC573",
"u+	c #FEBF4D",
"v+	c #FCBB2E",
"w+	c #F58F37",
"x+	c #F38630",
"y+	c #FCAF38",
"z+	c #FFC166",
"A+	c #FEC378",
"B+	c #FDC078",
"C+	c #F8BA6F",
"D+	c #A77736",
"E+	c #564D29",
"F+	c #5C5A36",
"G+	c #56522F",
"H+	c #564E2D",
"I+	c #5E5635",
"J+	c #877E5F",
"K+	c #B48D58",
"L+	c #F3BE73",
"M+	c #FAC671",
"N+	c #FBC655",
"O+	c #FEC632",
"P+	c #FFCD22",
"Q+	c #F8BC25",
"R+	c #F1A62C",
"S+	c #FCC625",
"T+	c #FFC62A",
"U+	c #FEC53D",
"V+	c #FEC350",
"W+	c #FFBF53",
"X+	c #FCB24E",
"Y+	c #EFB267",
"Z+	c #CBBDA6",
"`+	c #D5CAB1",
" @	c #DCD0B9",
".@	c #DBCEB8",
"+@	c #B9A690",
"@@	c #DDA757",
"#@	c #FECC5C",
"$@	c #FECF4C",
"%@	c #FED12B",
"&@	c #FFD71B",
"*@	c #FDDA18",
"=@	c #F8CF1F",
"-@	c #F0B827",
";@	c #FFD919",
">@	c #FFD41E",
",@	c #FFCE2A",
"'@	c #FFC931",
")@	c #FFC133",
"!@	c #F5B136",
"~@	c #5F4F3E",
"{@	c #655F57",
"]@	c #6D675E",
"^@	c #544F48",
"/@	c #473721",
"(@	c #CD9B31",
"_@	c #FFD341",
":@	c #FFD72D",
"<@	c #FFDD17",
"[@	c #FBD818",
"}@	c #EAB428",
"|@	c #E4AE34",
"1@	c #E8BA26",
"2@	c #EDC022",
"3@	c #F8D11C",
"4@	c #FCD81A",
"5@	c #FDD21D",
"6@	c #F1B727",
"7@	c #3C1D10",
"8@	c #230A0A",
"9@	c #290A0B",
"0@	c #25090A",
"a@	c #552F14",
"b@	c #DCA723",
"c@	c #FFDF19",
"d@	c #FEE411",
"e@	c #F4D019",
"f@	c #D59428",
"g@	c #E5A728",
"h@	c #E5A125",
"i@	c #D26A1E",
"j@	c #8F1108",
"k@	c #A21D0C",
"l@	c #D57123",
"m@	c #F4C120",
"n@	c #F2C321",
"o@	c #710000",
"                                                                ",
"                          .     . .                             ",
"                          .     + +   . .                       ",
"                    . .         @ #   $     .                   ",
"                      %     & * = - ; > , '                     ",
"                ) ! ~     { ] ^ / / ( _   :   <                 ",
"                  [       } | 1 2 3 4 5     6 7                 ",
"                          8 9 0 a b c d e       ~               ",
"              f g h       i j k l m n o p     q r s             ",
"                t u       v w x y z A B C                       ",
"                          D E F G H I J K                       ",
"                          L M N O P Q R S                       ",
"                        T U V W X Y Z `  ...                    ",
"                      +.@.#.$.%.%.&.*.=.-.;.                    ",
"                    >.,.'.).!.~.{.].^./.(.(._.                  ",
"                    :.<.[.}.|.1.2.3.4.5.6.7.8.9.                ",
"                    0.a.b.c.d.e.f.g.h.i.j.k.l.m.                ",
"                  n.o.p.q.r.s.t.u.v.w.x.y.z.A.B.                ",
"                  C.D.E.F.G.H.I.J.K.L.M.N.O.P.Q.R.              ",
"                  S.T.U.V.W.X.Y.Z.`. +.+++@+#+$+%+              ",
"                &+*+=+-+;+>+,+'+)+!+~+{+]+^+/+(+_+              ",
"              :+<+[+}+|+1+2+3+4+5+6+7+8+9+0+a+b+c+              ",
"            d+e+f+g+h+i+j+k+l+m+n+o+p+q+r+s+t+u+v+w+            ",
"            x+y+z+A+B+C+D+E+F+G+H+I+J+K+L+M+N+O+P+Q+            ",
"            R+S+T+U+V+W+X+Y+Z+`+ @.@+@@@#@$@%@&@*@=@            ",
"            -@*@;@>@,@'@)@!@~@{@]@^@/@(@_@:@<@[@}@              ",
"              |@1@2@3@4@5@6@7@8@9@0@a@b@c@d@e@f@                ",
"                      g@h@i@j@      k@l@m@n@                    ",
"                                                                ",
"                      o@                                        ",
"                                                                ",
"                                                                "};
